<?xml version="1.0" encoding="iso-8859-1"?>
<!-- Generator: Adobe Illustrator 19.0.0, SVG Export Plug-In . SVG Version: 6.00 Build 0)  -->
<svg version="1.1" id="Layer_1" xmlns="http://www.w3.org/2000/svg" xmlns:xlink="http://www.w3.org/1999/xlink" x="0px" y="0px"
	 viewBox="0 0 512 512" style="enable-background:new 0 0 512 512;" xml:space="preserve">
<path style="fill:#FFECD4;" d="M512,162.909v302.545c0,25.6-20.945,46.545-46.545,46.545H46.545C20.945,512,0,491.055,0,465.455
	V162.909l256-58.182L512,162.909z"/>
<path style="fill:#A41010;" d="M512,46.545v116.364H139.636L93.091,128l-46.545,34.909H0V46.545C0,20.945,20.945,0,46.545,0
	l46.545,34.909L139.636,0h325.818C491.055,0,512,20.945,512,46.545z"/>
<circle style="fill:#1D9DBD;" cx="256" cy="256" r="128"/>
<circle style="fill:#074761;" cx="256" cy="256" r="81.455"/>
<path style="fill:#042431;" d="M256,311.251c-14.778,0-28.658-5.741-39.084-16.168c-3.408-3.408-3.408-8.934,0-12.342
	c3.408-3.408,8.934-3.408,12.342,0c7.128,7.128,16.626,11.055,26.742,11.055s19.612-3.926,26.74-11.055
	c10.932-10.931,14.096-27.223,8.064-41.506c-1.875-4.439,0.205-9.559,4.644-11.435c4.436-1.875,9.559,0.202,11.435,4.644
	c8.81,20.858,4.179,44.66-11.8,60.639C284.659,305.508,270.777,311.251,256,311.251z"/>
<rect x="384" y="46.545" style="fill:#FFFFFF;" width="81.455" height="69.818"/>
<rect x="46.545" style="fill:#FC3737;" width="31.031" height="162.909"/>
<rect x="77.58" style="fill:#1D9DBD;" width="31.031" height="162.909"/>
<rect x="108.602" style="fill:#5ED6B4;" width="31.031" height="162.909"/>
<g>
</g>
<g>
</g>
<g>
</g>
<g>
</g>
<g>
</g>
<g>
</g>
<g>
</g>
<g>
</g>
<g>
</g>
<g>
</g>
<g>
</g>
<g>
</g>
<g>
</g>
<g>
</g>
<g>
</g>
</svg>
